<?xml version="1.0" encoding="utf-8"?>
<!-- Generator: Adobe Illustrator 23.0.2, SVG Export Plug-In . SVG Version: 6.00 Build 0)  -->
<svg version="1.1" id="Layer_1" xmlns="http://www.w3.org/2000/svg" xmlns:xlink="http://www.w3.org/1999/xlink" x="0px" y="0px"
	 viewBox="0 0 150 150" style="enable-background:new 0 0 150 150;" xml:space="preserve">
<style type="text/css">
	.st0{fill:#B7B7B7;}
	.st1{fill:#939393;}
	.st2{fill:#DD2222;}
	.st3{fill:#FFFFFF;}
	.st4{fill:#4C4C4C;}
	.st5{fill:#016FD0;}
</style>
<g id="layer1" transform="translate(-55.5,-1002.3452)">
	<path id="path3078" class="st5" d="M55.31,1002.35h150v80.97l-7.42,11.6l7.42,10.32v47.1h-150v-76.33l4.64-5.34l-4.64-5.1V1002.35z
		"/>
	<path id="path3082" class="st3" d="M84.43,1106.87v-23.55h24.93l2.68,3.49l2.76-3.49h90.51v21.93c0,0-2.37,1.6-5.1,1.62h-50.12
		l-3.02-3.71v3.71h-9.88v-6.34c0,0-1.35,0.88-4.27,0.88h-3.36v5.45h-14.97l-2.67-3.56l-2.71,3.56H84.43z"/>
	<path id="path3080" class="st3" d="M55.31,1065.57l5.62-13.11h9.72l3.19,7.34v-7.34h12.09l1.9,5.31l1.84-5.31h54.26v2.67
		c0,0,2.85-2.67,7.54-2.67l17.61,0.06l3.14,7.25v-7.31h10.12l2.78,4.16v-4.16h10.21v23.55h-10.21l-2.67-4.18v4.18H167.6l-1.49-3.71
		h-4l-1.47,3.71h-10.08c-4.03,0-6.61-2.61-6.61-2.61v2.61h-15.2l-3.02-3.71v3.71H69.22l-1.49-3.71h-3.98l-1.48,3.71h-6.95V1065.57z"
		/>
	<path id="path3046_4_" class="st5" d="M62.93,1055.36L55.34,1073h4.94l1.4-3.53h8.14l1.39,3.53h5.05l-7.58-17.63H62.93
		L62.93,1055.36z M65.73,1059.47l2.48,6.17h-4.97L65.73,1059.47z"/>
	<path id="path3048_4_" class="st5" d="M76.78,1072.99v-17.63l7.02,0.03l4.08,11.37l3.98-11.4h6.96v17.63h-4.41V1060l-4.67,12.99
		h-3.87L81.18,1060v12.99H76.78z"/>
	<path id="path3050_4_" class="st5" d="M101.83,1072.99v-17.63h14.39v3.94h-9.93v3.02h9.7v3.71h-9.7v3.13h9.93v3.83H101.83z"/>
	<path id="path3052_4_" class="st5" d="M118.77,1055.36V1073h4.41v-6.26h1.86l5.29,6.26h5.39l-5.8-6.5c2.38-0.2,4.84-2.24,4.84-5.42
		c0-3.71-2.91-5.72-6.16-5.72H118.77L118.77,1055.36z M123.18,1059.31h5.04c1.21,0,2.09,0.95,2.09,1.86c0,1.17-1.14,1.86-2.02,1.86
		h-5.1L123.18,1059.31L123.18,1059.31z"/>
	<path id="path3054_4_" class="st5" d="M141.04,1072.99h-4.5v-17.63h4.5V1072.99z"/>
	<path id="path3056_4_" class="st5" d="M151.72,1072.99h-0.97c-4.7,0-7.56-3.7-7.56-8.74c0-5.17,2.82-8.89,8.76-8.89h4.87v4.18
		h-5.05c-2.41,0-4.11,1.88-4.11,4.76c0,3.41,1.95,4.85,4.76,4.85h1.16L151.72,1072.99z"/>
	<path id="path3058_4_" class="st5" d="M161.31,1055.36l-7.58,17.63h4.94l1.4-3.53h8.14l1.39,3.53h5.05l-7.58-17.63H161.31
		L161.31,1055.36z M164.12,1059.47l2.48,6.17h-4.97L164.12,1059.47L164.12,1059.47z"/>
	<path id="path3060_4_" class="st5" d="M175.15,1072.99v-17.63h5.6l7.16,11.08v-11.08h4.41v17.63h-5.42l-7.34-11.37v11.37H175.15z"
		/>
	<path id="path3062_4_" class="st5" d="M87.45,1103.85v-17.63h14.39v3.94H91.9v3.02h9.7v3.71h-9.7v3.13h9.93v3.83H87.45z"/>
	<path id="path3064_4_" class="st5" d="M157.94,1103.85v-17.63h14.39v3.94h-9.93v3.02h9.65v3.71h-9.65v3.13h9.93v3.83H157.94z"/>
	<path id="path3066_4_" class="st5" d="M102.39,1103.85l7-8.71l-7.17-8.93h5.55l4.27,5.52l4.29-5.52h5.34l-7.08,8.82l7.02,8.82
		h-5.55l-4.15-5.43l-4.05,5.43L102.39,1103.85z"/>
	<path id="path3068_4_" class="st5" d="M122.13,1086.22v17.63h4.52v-5.57h4.64c3.93,0,6.9-2.08,6.9-6.13c0-3.36-2.33-5.93-6.33-5.93
		H122.13L122.13,1086.22z M126.66,1090.21h4.89c1.27,0,2.18,0.78,2.18,2.03c0,1.18-0.9,2.03-2.19,2.03h-4.87V1090.21L126.66,1090.21
		z"/>
	<path id="path3072_4_" class="st5" d="M140.12,1086.22v17.63h4.41v-6.26h1.86l5.29,6.26h5.39l-5.8-6.5
		c2.38-0.2,4.84-2.24,4.84-5.42c0-3.71-2.91-5.72-6.16-5.72H140.12L140.12,1086.22z M144.52,1090.16h5.04
		c1.21,0,2.09,0.95,2.09,1.86c0,1.17-1.14,1.86-2.02,1.86h-5.1V1090.16z"/>
	<path id="path3074_4_" class="st5" d="M174.36,1103.85v-3.83h8.82c1.31,0,1.87-0.71,1.87-1.48c0-0.74-0.56-1.49-1.87-1.49h-3.99
		c-3.47,0-5.4-2.11-5.4-5.28c0-2.83,1.77-5.55,6.92-5.55h8.58l-1.86,3.97h-7.42c-1.42,0-1.86,0.74-1.86,1.46
		c0,0.73,0.54,1.54,1.62,1.54h4.18c3.86,0,5.54,2.19,5.54,5.06c0,3.09-1.87,5.61-5.75,5.61H174.36z"/>
	<path id="path3076_4_" class="st5" d="M190.54,1103.85v-3.83h8.82c1.31,0,1.87-0.71,1.87-1.48c0-0.74-0.56-1.49-1.87-1.49h-3.99
		c-3.47,0-5.4-2.11-5.4-5.28c0-2.83,1.77-5.55,6.92-5.55h8.58l-1.86,3.97h-7.42c-1.42,0-1.86,0.74-1.86,1.46
		c0,0.73,0.54,1.54,1.62,1.54h4.18c3.86,0,5.54,2.19,5.54,5.06c0,3.09-1.87,5.61-5.75,5.61H190.54z"/>
</g>
</svg>
